STARTFONT 2.1
FONT -FontForge-DSEG14 Classic-Book-R-Normal--64-610-75-75-P-494-ISO10646-1
SIZE 61 75 75
FONTBOUNDINGBOX 50 64 -4 0
COMMENT "Generated by fontforge, http://fontforge.sourceforge.net"
COMMENT "Created by Keshikan"
COMMENT "with FontForge 2.0 (http://fontforge.sf.net)"
STARTPROPERTIES 40
FOUNDRY "FontForge"
FAMILY_NAME "DSEG14 Classic"
WEIGHT_NAME "Book"
SLANT "R"
SETWIDTH_NAME "Normal"
ADD_STYLE_NAME ""
PIXEL_SIZE 64
POINT_SIZE 610
RESOLUTION_X 75
RESOLUTION_Y 75
SPACING "P"
AVERAGE_WIDTH 494
CHARSET_REGISTRY "ISO10646"
CHARSET_ENCODING "1"
FONTNAME_REGISTRY ""
CHARSET_COLLECTIONS "ISO10646-1"
FONT_NAME "DSEG14Classic-Regular"
FACE_NAME "DSEG14 Classic-Regular"
COPYRIGHT "Created by Keshikan"
FONT_VERSION "0.46"
FONT_ASCENT 64
FONT_DESCENT 0
UNDERLINE_POSITION -10
UNDERLINE_THICKNESS 4
X_HEIGHT 56
CAP_HEIGHT 56
RAW_ASCENT 1000
RAW_DESCENT 0
NORM_SPACE 13
RELATIVE_WEIGHT 40
RELATIVE_SETWIDTH 50
SUPERSCRIPT_X 0
SUPERSCRIPT_Y 30
SUPERSCRIPT_SIZE 44
SUBSCRIPT_X 0
SUBSCRIPT_Y 8
SUBSCRIPT_SIZE 44
FIGURE_WIDTH 52
AVG_LOWERCASE_WIDTH 520
AVG_UPPERCASE_WIDTH 520
ENDPROPERTIES
CHARS 96
STARTCHAR space
ENCODING 32
SWIDTH 200 0
DWIDTH 13 0
BBX 1 1 0 0
BITMAP
00
ENDCHAR
STARTCHAR exclam
ENCODING 33
SWIDTH 816 0
DWIDTH 52 0
BBX 1 1 0 0
BITMAP
00
ENDCHAR
STARTCHAR quotedbl
ENCODING 34
SWIDTH 816 0
DWIDTH 52 0
BBX 23 28 6 33
BITMAP
200000
700000
F80000
FC0000
FC007E
FC007E
FC007E
FC007E
FC007E
FC007E
FC007E
FC007E
FC007E
FC007E
FC007E
FC007E
FC007E
FC007E
FC007E
FC007E
FC007E
FC007E
FC007E
FC003E
FC003C
F80018
F00018
E00000
ENDCHAR
STARTCHAR dollar
ENCODING 36
SWIDTH 816 0
DWIDTH 52 0
BBX 40 64 6 0
BITMAP
07FFFFFFF0
0FFFFFFFF8
0FFFFFFFF8
27FFFFFFF0
73FFFFFFE0
F9FFFFFFC0
FC00000000
FC007E0000
FC007E0000
FC007E0000
FC007E0000
FC007E0000
FC007E0000
FC007E0000
FC007E0000
FC007E0000
FC007E0000
FC007E0000
FC007E0000
FC007E0000
FC007E0000
FC007E0000
FC007E0000
FC007E0000
FC007E0000
FC007E0000
FC003E0000
FC003C0000
F800180000
F3FFDBFFC0
E7FFC3FFE0
0FFFE7FFF0
0FFFE7FFF8
07FFC3FFE7
03FFDBFFCF
000018001F
00003C003F
00003E003F
00007E003F
00007E003F
00007E003F
00007E003F
00007E003F
00007E003F
00007E003F
00007E003F
00007E003F
00007E003F
00007E003F
00007E003F
00007E003F
00007E003F
00007E003F
00007E003F
00007E003F
00007E003F
00007E003F
000000003F
01FFFFFFDF
03FFFFFFEF
07FFFFFFF6
0FFFFFFFF8
0FFFFFFFF8
07FFFFFFF0
ENDCHAR
STARTCHAR percent
ENCODING 37
SWIDTH 816 0
DWIDTH 52 0
BBX 40 58 6 3
BITMAP
2000000000
7000000000
F800000000
FC00000000
FC80000180
FCC0000380
FCE0000380
FCE0000780
FCF0000780
FCF0000F80
FCF8001F80
FCF8001F80
FCFC003F80
FCFE003F80
FCFE007F00
FC7F00FE00
FC7F00FE00
FC3F00FC00
FC1F00FC00
FC1F00F800
FC0F00F000
FC0F00F000
FC0700E000
FC0300E000
FC0300C000
F800000000
F3FFC3FFC0
E7FFC3FFE0
0FFFE7FFF0
0FFFE7FFF8
07FFC3FFE7
03FFC3FFCF
000000001F
000300C03F
000700E03F
000700E03F
000F00F03F
000F00F03F
001F00F83F
001F00FC3F
003F00FC3F
007F00FE3F
007F00FE3F
00FE007F3F
00FE003FBF
00FC003FBF
00F8001FBF
00F8001FBF
00F0000FBF
00F00007BF
00E00007BF
00E00003BF
00C00003BF
00800001BF
000000003F
000000001F
000000000F
0000000006
ENDCHAR
STARTCHAR ampersand
ENCODING 38
SWIDTH 816 0
DWIDTH 52 0
BBX 36 64 10 0
BITMAP
7FFFFFFF00
FFFFFFFF80
FFFFFFFF80
7FFFFFFF00
3FFFFFFE00
1FFFFFFC00
0000000000
0800001800
0C00003800
0E00003800
0E00007800
0F00007800
0F0000F800
0F8001F800
0F8001F800
0FC003F800
0FE003F800
0FE007F000
07F00FE000
07F00FE000
03F00FC000
01F00FC000
01F00F8000
00F00F0000
00F00F0000
00700E0000
00300E0000
00300C0000
0000000000
0000000000
0000000000
0000000000
0000000000
0000000070
00000000F0
00000001F0
00300C03F0
00700E03F0
00700E03F0
00F00F03F0
00F00F03F0
01F00F83F0
01F00FC3F0
03F00FC3F0
07F00FE3F0
07F00FE3F0
0FE007F3F0
0FE003FBF0
0FC003FBF0
0F8001FBF0
0F8001FBF0
0F0000FBF0
0F00007BF0
0E00007BF0
0E00003BF0
0C00003BF0
0800001BF0
00000003F0
1FFFFFFDF0
3FFFFFFEF0
7FFFFFFF60
FFFFFFFF80
FFFFFFFF80
7FFFFFFF00
ENDCHAR
STARTCHAR quotesingle
ENCODING 39
SWIDTH 816 0
DWIDTH 52 0
BBX 6 23 23 34
BITMAP
FC
FC
FC
FC
FC
FC
FC
FC
FC
FC
FC
FC
FC
FC
FC
FC
FC
FC
FC
7C
78
30
30
ENDCHAR
STARTCHAR parenleft
ENCODING 40
SWIDTH 816 0
DWIDTH 52 0
BBX 9 50 30 7
BITMAP
0180
0380
0380
0780
0780
0F80
1F80
1F80
3F80
3F80
7F00
FE00
FE00
FC00
FC00
F800
F000
F000
E000
E000
C000
0000
0000
0000
0000
0000
0000
0000
0000
C000
E000
E000
F000
F000
F800
FC00
FC00
FE00
FE00
7F00
3F80
3F80
1F80
1F80
0F80
0780
0780
0380
0380
0180
ENDCHAR
STARTCHAR parenright
ENCODING 41
SWIDTH 816 0
DWIDTH 52 0
BBX 8 50 14 7
BITMAP
80
C0
E0
E0
F0
F0
F8
F8
FC
FE
FE
7F
7F
3F
1F
1F
0F
0F
07
03
03
00
00
00
00
00
00
00
00
03
07
07
0F
0F
1F
1F
3F
7F
7F
FE
FE
FC
F8
F8
F0
F0
E0
E0
C0
80
ENDCHAR
STARTCHAR asterisk
ENCODING 42
SWIDTH 816 0
DWIDTH 52 0
BBX 33 50 10 7
BITMAP
0807E01800
0C07E03800
0E07E03800
0E07E07800
0F07E07800
0F07E0F800
0F87E1F800
0F87E1F800
0FC7E3F800
0FE7E3F800
0FE7E7F000
07F7EFE000
07F7EFE000
03F7EFC000
01F7EFC000
01F7EF8000
00F7EF0000
00F7EF0000
0077EE0000
0033EE0000
0033CC0000
0001800000
3FFDBFFC00
7FFC3FFE00
FFFE7FFF00
FFFE7FFF80
7FFC3FFE00
3FFDBFFC00
0001800000
0033CC0000
0073EE0000
0077EE0000
00F7EF0000
00F7EF0000
01F7EF8000
01F7EFC000
03F7EFC000
07F7EFE000
07F7EFE000
0FE7E7F000
0FE7E3F800
0FC7E3F800
0F87E1F800
0F87E1F800
0F07E0F800
0F07E07800
0E07E07800
0E07E03800
0C07E03800
0807E01800
ENDCHAR
STARTCHAR plus
ENCODING 43
SWIDTH 816 0
DWIDTH 52 0
BBX 33 50 10 7
BITMAP
0007E00000
0007E00000
0007E00000
0007E00000
0007E00000
0007E00000
0007E00000
0007E00000
0007E00000
0007E00000
0007E00000
0007E00000
0007E00000
0007E00000
0007E00000
0007E00000
0007E00000
0007E00000
0007E00000
0003E00000
0003C00000
0001800000
3FFDBFFC00
7FFC3FFE00
FFFE7FFF00
FFFE7FFF80
7FFC3FFE00
3FFDBFFC00
0001800000
0003C00000
0003E00000
0007E00000
0007E00000
0007E00000
0007E00000
0007E00000
0007E00000
0007E00000
0007E00000
0007E00000
0007E00000
0007E00000
0007E00000
0007E00000
0007E00000
0007E00000
0007E00000
0007E00000
0007E00000
0007E00000
ENDCHAR
STARTCHAR comma
ENCODING 44
SWIDTH 816 0
DWIDTH 52 0
BBX 8 21 14 7
BITMAP
03
07
07
0F
0F
1F
1F
3F
7F
7F
FE
FE
FC
F8
F8
F0
F0
E0
E0
C0
80
ENDCHAR
STARTCHAR hyphen
ENCODING 45
SWIDTH 816 0
DWIDTH 52 0
BBX 33 6 10 29
BITMAP
3FFC3FFC00
7FFC3FFE00
FFFE7FFF00
FFFE7FFF80
7FFC3FFE00
3FFC3FFC00
ENDCHAR
STARTCHAR period
ENCODING 46
SWIDTH 0 0
DWIDTH 0 0
BBX 8 8 -4 0
BITMAP
3C
7E
FF
FF
FF
FF
7E
3C
ENDCHAR
STARTCHAR slash
ENCODING 47
SWIDTH 816 0
DWIDTH 52 0
BBX 25 50 14 7
BITMAP
00000180
00000380
00000380
00000780
00000780
00000F80
00001F80
00001F80
00003F80
00003F80
00007F00
0000FE00
0000FE00
0000FC00
0000FC00
0000F800
0000F000
0000F000
0000E000
0000E000
0000C000
00000000
00000000
00000000
00000000
00000000
00000000
00000000
00000000
03000000
07000000
07000000
0F000000
0F000000
1F000000
1F000000
3F000000
7F000000
7F000000
FE000000
FE000000
FC000000
F8000000
F8000000
F0000000
F0000000
E0000000
E0000000
C0000000
80000000
ENDCHAR
STARTCHAR zero
ENCODING 48
SWIDTH 816 0
DWIDTH 52 0
BBX 40 64 6 0
BITMAP
07FFFFFFF0
0FFFFFFFF8
0FFFFFFFF8
27FFFFFFF6
73FFFFFFEF
F9FFFFFFDF
FC0000003F
FC000001BF
FC000003BF
FC000003BF
FC000007BF
FC000007BF
FC00000FBF
FC00001FBF
FC00001FBF
FC00003FBF
FC00003FBF
FC00007F3F
FC0000FE3F
FC0000FE3F
FC0000FC3F
FC0000FC3F
FC0000F83F
FC0000F03F
FC0000F03F
FC0000E03F
FC0000E03F
FC0000C03F
F80000001F
F00000000F
E000000007
0000000000
0000000000
E000000007
F00000000F
F80000001F
FC0300003F
FC0700003F
FC0700003F
FC0F00003F
FC0F00003F
FC1F00003F
FC1F00003F
FC3F00003F
FC7F00003F
FC7F00003F
FCFE00003F
FCFE00003F
FCFC00003F
FCF800003F
FCF800003F
FCF000003F
FCF000003F
FCE000003F
FCE000003F
FCC000003F
FC8000003F
FC0000003F
F9FFFFFFDF
73FFFFFFEF
27FFFFFFF6
0FFFFFFFF8
0FFFFFFFF8
07FFFFFFF0
ENDCHAR
STARTCHAR one
ENCODING 49
SWIDTH 816 0
DWIDTH 52 0
BBX 6 58 40 3
BITMAP
18
3C
7C
FC
FC
FC
FC
FC
FC
FC
FC
FC
FC
FC
FC
FC
FC
FC
FC
FC
FC
FC
FC
FC
FC
7C
3C
1C
00
00
1C
3C
7C
FC
FC
FC
FC
FC
FC
FC
FC
FC
FC
FC
FC
FC
FC
FC
FC
FC
FC
FC
FC
FC
FC
7C
3C
18
ENDCHAR
STARTCHAR two
ENCODING 50
SWIDTH 816 0
DWIDTH 52 0
BBX 40 64 6 0
BITMAP
07FFFFFFF0
0FFFFFFFF8
0FFFFFFFF8
07FFFFFFF6
03FFFFFFEF
01FFFFFFDF
000000003F
000000003F
000000003F
000000003F
000000003F
000000003F
000000003F
000000003F
000000003F
000000003F
000000003F
000000003F
000000003F
000000003F
000000003F
000000003F
000000003F
000000003F
000000003F
000000003F
000000003F
000000003F
000000001F
03FFC3FFCF
07FFC3FFE7
0FFFE7FFF0
0FFFE7FFF8
E7FFC3FFE0
F3FFC3FFC0
F800000000
FC00000000
FC00000000
FC00000000
FC00000000
FC00000000
FC00000000
FC00000000
FC00000000
FC00000000
FC00000000
FC00000000
FC00000000
FC00000000
FC00000000
FC00000000
FC00000000
FC00000000
FC00000000
FC00000000
FC00000000
FC00000000
FC00000000
F9FFFFFFC0
73FFFFFFE0
27FFFFFFF0
0FFFFFFFF8
0FFFFFFFF8
07FFFFFFF0
ENDCHAR
STARTCHAR three
ENCODING 51
SWIDTH 816 0
DWIDTH 52 0
BBX 36 64 10 0
BITMAP
7FFFFFFF00
FFFFFFFF80
FFFFFFFF80
7FFFFFFF60
3FFFFFFEF0
1FFFFFFDF0
00000003F0
00000003F0
00000003F0
00000003F0
00000003F0
00000003F0
00000003F0
00000003F0
00000003F0
00000003F0
00000003F0
00000003F0
00000003F0
00000003F0
00000003F0
00000003F0
00000003F0
00000003F0
00000003F0
00000003F0
00000003F0
00000003F0
00000001F0
3FFC3FFCF0
7FFC3FFE70
FFFE7FFF00
FFFE7FFF80
7FFC3FFE70
3FFC3FFCF0
00000001F0
00000003F0
00000003F0
00000003F0
00000003F0
00000003F0
00000003F0
00000003F0
00000003F0
00000003F0
00000003F0
00000003F0
00000003F0
00000003F0
00000003F0
00000003F0
00000003F0
00000003F0
00000003F0
00000003F0
00000003F0
00000003F0
00000003F0
1FFFFFFDF0
3FFFFFFEF0
7FFFFFFF60
FFFFFFFF80
FFFFFFFF80
7FFFFFFF00
ENDCHAR
STARTCHAR four
ENCODING 52
SWIDTH 816 0
DWIDTH 52 0
BBX 40 58 6 3
BITMAP
2000000006
700000000F
F80000001F
FC0000003F
FC0000003F
FC0000003F
FC0000003F
FC0000003F
FC0000003F
FC0000003F
FC0000003F
FC0000003F
FC0000003F
FC0000003F
FC0000003F
FC0000003F
FC0000003F
FC0000003F
FC0000003F
FC0000003F
FC0000003F
FC0000003F
FC0000003F
FC0000003F
FC0000003F
F80000001F
F3FFC3FFCF
E7FFC3FFE7
0FFFE7FFF0
0FFFE7FFF8
07FFC3FFE7
03FFC3FFCF
000000001F
000000003F
000000003F
000000003F
000000003F
000000003F
000000003F
000000003F
000000003F
000000003F
000000003F
000000003F
000000003F
000000003F
000000003F
000000003F
000000003F
000000003F
000000003F
000000003F
000000003F
000000003F
000000003F
000000001F
000000000F
0000000006
ENDCHAR
STARTCHAR five
ENCODING 53
SWIDTH 816 0
DWIDTH 52 0
BBX 40 64 6 0
BITMAP
07FFFFFFF0
0FFFFFFFF8
0FFFFFFFF8
27FFFFFFF0
73FFFFFFE0
F9FFFFFFC0
FC00000000
FC00000000
FC00000000
FC00000000
FC00000000
FC00000000
FC00000000
FC00000000
FC00000000
FC00000000
FC00000000
FC00000000
FC00000000
FC00000000
FC00000000
FC00000000
FC00000000
FC00000000
FC00000000
FC00000000
FC00000000
FC00000000
F800000000
F3FFC3FFC0
E7FFC3FFE0
0FFFE7FFF0
0FFFE7FFF8
07FFC3FFE7
03FFC3FFCF
000000001F
000000003F
000000003F
000000003F
000000003F
000000003F
000000003F
000000003F
000000003F
000000003F
000000003F
000000003F
000000003F
000000003F
000000003F
000000003F
000000003F
000000003F
000000003F
000000003F
000000003F
000000003F
000000003F
01FFFFFFDF
03FFFFFFEF
07FFFFFFF6
0FFFFFFFF8
0FFFFFFFF8
07FFFFFFF0
ENDCHAR
STARTCHAR six
ENCODING 54
SWIDTH 816 0
DWIDTH 52 0
BBX 40 64 6 0
BITMAP
07FFFFFFF0
0FFFFFFFF8
0FFFFFFFF8
27FFFFFFF0
73FFFFFFE0
F9FFFFFFC0
FC00000000
FC00000000
FC00000000
FC00000000
FC00000000
FC00000000
FC00000000
FC00000000
FC00000000
FC00000000
FC00000000
FC00000000
FC00000000
FC00000000
FC00000000
FC00000000
FC00000000
FC00000000
FC00000000
FC00000000
FC00000000
FC00000000
F800000000
F3FFC3FFC0
E7FFC3FFE0
0FFFE7FFF0
0FFFE7FFF8
E7FFC3FFE7
F3FFC3FFCF
F80000001F
FC0000003F
FC0000003F
FC0000003F
FC0000003F
FC0000003F
FC0000003F
FC0000003F
FC0000003F
FC0000003F
FC0000003F
FC0000003F
FC0000003F
FC0000003F
FC0000003F
FC0000003F
FC0000003F
FC0000003F
FC0000003F
FC0000003F
FC0000003F
FC0000003F
FC0000003F
F9FFFFFFDF
73FFFFFFEF
27FFFFFFF6
0FFFFFFFF8
0FFFFFFFF8
07FFFFFFF0
ENDCHAR
STARTCHAR seven
ENCODING 55
SWIDTH 816 0
DWIDTH 52 0
BBX 40 61 6 3
BITMAP
07FFFFFFF0
0FFFFFFFF8
0FFFFFFFF8
27FFFFFFF6
73FFFFFFEF
F9FFFFFFDF
FC0000003F
FC0000003F
FC0000003F
FC0000003F
FC0000003F
FC0000003F
FC0000003F
FC0000003F
FC0000003F
FC0000003F
FC0000003F
FC0000003F
FC0000003F
FC0000003F
FC0000003F
FC0000003F
FC0000003F
FC0000003F
FC0000003F
FC0000003F
FC0000003F
FC0000003F
F80000001F
F00000000F
E000000007
0000000000
0000000000
0000000007
000000000F
000000001F
000000003F
000000003F
000000003F
000000003F
000000003F
000000003F
000000003F
000000003F
000000003F
000000003F
000000003F
000000003F
000000003F
000000003F
000000003F
000000003F
000000003F
000000003F
000000003F
000000003F
000000003F
000000003F
000000001F
000000000F
0000000006
ENDCHAR
STARTCHAR eight
ENCODING 56
SWIDTH 816 0
DWIDTH 52 0
BBX 40 64 6 0
BITMAP
07FFFFFFF0
0FFFFFFFF8
0FFFFFFFF8
27FFFFFFF6
73FFFFFFEF
F9FFFFFFDF
FC0000003F
FC0000003F
FC0000003F
FC0000003F
FC0000003F
FC0000003F
FC0000003F
FC0000003F
FC0000003F
FC0000003F
FC0000003F
FC0000003F
FC0000003F
FC0000003F
FC0000003F
FC0000003F
FC0000003F
FC0000003F
FC0000003F
FC0000003F
FC0000003F
FC0000003F
F80000001F
F3FFC3FFCF
E7FFC3FFE7
0FFFE7FFF0
0FFFE7FFF8
E7FFC3FFE7
F3FFC3FFCF
F80000001F
FC0000003F
FC0000003F
FC0000003F
FC0000003F
FC0000003F
FC0000003F
FC0000003F
FC0000003F
FC0000003F
FC0000003F
FC0000003F
FC0000003F
FC0000003F
FC0000003F
FC0000003F
FC0000003F
FC0000003F
FC0000003F
FC0000003F
FC0000003F
FC0000003F
FC0000003F
F9FFFFFFDF
73FFFFFFEF
27FFFFFFF6
0FFFFFFFF8
0FFFFFFFF8
07FFFFFFF0
ENDCHAR
STARTCHAR nine
ENCODING 57
SWIDTH 816 0
DWIDTH 52 0
BBX 40 64 6 0
BITMAP
07FFFFFFF0
0FFFFFFFF8
0FFFFFFFF8
27FFFFFFF6
73FFFFFFEF
F9FFFFFFDF
FC0000003F
FC0000003F
FC0000003F
FC0000003F
FC0000003F
FC0000003F
FC0000003F
FC0000003F
FC0000003F
FC0000003F
FC0000003F
FC0000003F
FC0000003F
FC0000003F
FC0000003F
FC0000003F
FC0000003F
FC0000003F
FC0000003F
FC0000003F
FC0000003F
FC0000003F
F80000001F
F3FFC3FFCF
E7FFC3FFE7
0FFFE7FFF0
0FFFE7FFF8
07FFC3FFE7
03FFC3FFCF
000000001F
000000003F
000000003F
000000003F
000000003F
000000003F
000000003F
000000003F
000000003F
000000003F
000000003F
000000003F
000000003F
000000003F
000000003F
000000003F
000000003F
000000003F
000000003F
000000003F
000000003F
000000003F
000000003F
01FFFFFFDF
03FFFFFFEF
07FFFFFFF6
0FFFFFFFF8
0FFFFFFFF8
07FFFFFFF0
ENDCHAR
STARTCHAR colon
ENCODING 58
SWIDTH 200 0
DWIDTH 13 0
BBX 8 34 2 14
BITMAP
3E
7F
7F
FF
7F
7F
3E
08
00
00
00
00
00
00
00
00
00
00
00
00
00
00
00
00
00
00
1C
7E
7F
FF
FF
7F
7F
1C
ENDCHAR
STARTCHAR less
ENCODING 60
SWIDTH 816 0
DWIDTH 52 0
BBX 33 57 10 0
BITMAP
0000001800
0000003800
0000003800
0000007800
0000007800
000000F800
000001F800
000001F800
000003F800
000003F800
000007F000
00000FE000
00000FE000
00000FC000
00000FC000
00000F8000
00000F0000
00000F0000
00000E0000
00000E0000
00000C0000
0000000000
0000000000
0000000000
0000000000
0000000000
0000000000
0000000000
0000000000
0030000000
0070000000
0070000000
00F0000000
00F0000000
01F0000000
01F0000000
03F0000000
07F0000000
07F0000000
0FE0000000
0FE0000000
0FC0000000
0F80000000
0F80000000
0F00000000
0F00000000
0E00000000
0E00000000
0C00000000
0800000000
0000000000
1FFFFFFC00
3FFFFFFE00
7FFFFFFF00
FFFFFFFF80
FFFFFFFF80
7FFFFFFF00
ENDCHAR
STARTCHAR equal
ENCODING 61
SWIDTH 816 0
DWIDTH 52 0
BBX 33 35 10 0
BITMAP
3FFC3FFC00
7FFC3FFE00
FFFE7FFF00
FFFE7FFF80
7FFC3FFE00
3FFC3FFC00
0000000000
0000000000
0000000000
0000000000
0000000000
0000000000
0000000000
0000000000
0000000000
0000000000
0000000000
0000000000
0000000000
0000000000
0000000000
0000000000
0000000000
0000000000
0000000000
0000000000
0000000000
0000000000
0000000000
1FFFFFFC00
3FFFFFFE00
7FFFFFFF00
FFFFFFFF80
FFFFFFFF80
7FFFFFFF00
ENDCHAR
STARTCHAR greater
ENCODING 62
SWIDTH 816 0
DWIDTH 52 0
BBX 33 57 10 0
BITMAP
0800000000
0C00000000
0E00000000
0E00000000
0F00000000
0F00000000
0F80000000
0F80000000
0FC0000000
0FE0000000
0FE0000000
07F0000000
07F0000000
03F0000000
01F0000000
01F0000000
00F0000000
00F0000000
0070000000
0030000000
0030000000
0000000000
0000000000
0000000000
0000000000
0000000000
0000000000
0000000000
0000000000
00000C0000
00000E0000
00000E0000
00000F0000
00000F0000
00000F8000
00000FC000
00000FC000
00000FE000
00000FE000
000007F000
000003F800
000003F800
000001F800
000001F800
000000F800
0000007800
0000007800
0000003800
0000003800
0000001800
0000000000
1FFFFFFC00
3FFFFFFE00
7FFFFFFF00
FFFFFFFF80
FFFFFFFF80
7FFFFFFF00
ENDCHAR
STARTCHAR question
ENCODING 63
SWIDTH 816 0
DWIDTH 52 0
BBX 40 57 6 7
BITMAP
07FFFFFFF0
0FFFFFFFF8
0FFFFFFFF8
27FFFFFFF6
73FFFFFFEF
F9FFFFFFDF
FC0000003F
FC0000003F
FC0000003F
FC0000003F
FC0000003F
FC0000003F
FC0000003F
FC0000003F
FC0000003F
FC0000003F
FC0000003F
FC0000003F
FC0000003F
FC0000003F
FC0000003F
FC0000003F
FC0000003F
FC0000003F
FC0000003F
FC0000003F
FC0000003F
FC0000003F
F80000001F
F00003FFCF
E00003FFE7
000007FFF0
000007FFF8
000003FFE0
00001BFFC0
0000180000
00003C0000
00003E0000
00007E0000
00007E0000
00007E0000
00007E0000
00007E0000
00007E0000
00007E0000
00007E0000
00007E0000
00007E0000
00007E0000
00007E0000
00007E0000
00007E0000
00007E0000
00007E0000
00007E0000
00007E0000
00007E0000
ENDCHAR
STARTCHAR at
ENCODING 64
SWIDTH 816 0
DWIDTH 52 0
BBX 40 64 6 0
BITMAP
07FFFFFFF0
0FFFFFFFF8
0FFFFFFFF8
27FFFFFFF6
73FFFFFFEF
F9FFFFFFDF
FC0000003F
FC0000003F
FC0000003F
FC0000003F
FC0000003F
FC0000003F
FC0000003F
FC0000003F
FC0000003F
FC0000003F
FC0000003F
FC0000003F
FC0000003F
FC0000003F
FC0000003F
FC0000003F
FC0000003F
FC0000003F
FC0000003F
FC0000003F
FC0000003F
FC0000003F
F80000001F
F00003FFCF
E00003FFE7
000007FFF0
000007FFF8
E00003FFE7
F0001BFFCF
F80018001F
FC003C003F
FC003E003F
FC007E003F
FC007E003F
FC007E003F
FC007E003F
FC007E003F
FC007E003F
FC007E003F
FC007E003F
FC007E003F
FC007E003F
FC007E003F
FC007E003F
FC007E003F
FC007E003F
FC007E003F
FC007E003F
FC007E003F
FC007E003F
FC007E003F
FC0000003F
F9FFFFFFDF
73FFFFFFEF
27FFFFFFF6
0FFFFFFFF8
0FFFFFFFF8
07FFFFFFF0
ENDCHAR
STARTCHAR A
ENCODING 65
SWIDTH 816 0
DWIDTH 52 0
BBX 40 61 6 3
BITMAP
07FFFFFFF0
0FFFFFFFF8
0FFFFFFFF8
27FFFFFFF6
73FFFFFFEF
F9FFFFFFDF
FC0000003F
FC0000003F
FC0000003F
FC0000003F
FC0000003F
FC0000003F
FC0000003F
FC0000003F
FC0000003F
FC0000003F
FC0000003F
FC0000003F
FC0000003F
FC0000003F
FC0000003F
FC0000003F
FC0000003F
FC0000003F
FC0000003F
FC0000003F
FC0000003F
FC0000003F
F80000001F
F3FFC3FFCF
E7FFC3FFE7
0FFFE7FFF0
0FFFE7FFF8
E7FFC3FFE7
F3FFC3FFCF
F80000001F
FC0000003F
FC0000003F
FC0000003F
FC0000003F
FC0000003F
FC0000003F
FC0000003F
FC0000003F
FC0000003F
FC0000003F
FC0000003F
FC0000003F
FC0000003F
FC0000003F
FC0000003F
FC0000003F
FC0000003F
FC0000003F
FC0000003F
FC0000003F
FC0000003F
FC0000003F
F80000001F
700000000F
2000000006
ENDCHAR
STARTCHAR B
ENCODING 66
SWIDTH 816 0
DWIDTH 52 0
BBX 36 64 10 0
BITMAP
7FFFFFFF00
FFFFFFFF80
FFFFFFFF80
7FFFFFFF60
3FFFFFFEF0
1FFFFFFDF0
00000003F0
0007E003F0
0007E003F0
0007E003F0
0007E003F0
0007E003F0
0007E003F0
0007E003F0
0007E003F0
0007E003F0
0007E003F0
0007E003F0
0007E003F0
0007E003F0
0007E003F0
0007E003F0
0007E003F0
0007E003F0
0007E003F0
0007E003F0
0003E003F0
0003C003F0
00018001F0
0001BFFCF0
00003FFE70
00007FFF00
00007FFF80
00003FFE70
0001BFFCF0
00018001F0
0003C003F0
0003E003F0
0007E003F0
0007E003F0
0007E003F0
0007E003F0
0007E003F0
0007E003F0
0007E003F0
0007E003F0
0007E003F0
0007E003F0
0007E003F0
0007E003F0
0007E003F0
0007E003F0
0007E003F0
0007E003F0
0007E003F0
0007E003F0
0007E003F0
00000003F0
1FFFFFFDF0
3FFFFFFEF0
7FFFFFFF60
FFFFFFFF80
FFFFFFFF80
7FFFFFFF00
ENDCHAR
STARTCHAR C
ENCODING 67
SWIDTH 816 0
DWIDTH 52 0
BBX 37 64 6 0
BITMAP
07FFFFFFF0
0FFFFFFFF8
0FFFFFFFF8
27FFFFFFF0
73FFFFFFE0
F9FFFFFFC0
FC00000000
FC00000000
FC00000000
FC00000000
FC00000000
FC00000000
FC00000000
FC00000000
FC00000000
FC00000000
FC00000000
FC00000000
FC00000000
FC00000000
FC00000000
FC00000000
FC00000000
FC00000000
FC00000000
FC00000000
FC00000000
FC00000000
F800000000
F000000000
E000000000
0000000000
0000000000
E000000000
F000000000
F800000000
FC00000000
FC00000000
FC00000000
FC00000000
FC00000000
FC00000000
FC00000000
FC00000000
FC00000000
FC00000000
FC00000000
FC00000000
FC00000000
FC00000000
FC00000000
FC00000000
FC00000000
FC00000000
FC00000000
FC00000000
FC00000000
FC00000000
F9FFFFFFC0
73FFFFFFE0
27FFFFFFF0
0FFFFFFFF8
0FFFFFFFF8
07FFFFFFF0
ENDCHAR
STARTCHAR D
ENCODING 68
SWIDTH 816 0
DWIDTH 52 0
BBX 36 64 10 0
BITMAP
7FFFFFFF00
FFFFFFFF80
FFFFFFFF80
7FFFFFFF60
3FFFFFFEF0
1FFFFFFDF0
00000003F0
0007E003F0
0007E003F0
0007E003F0
0007E003F0
0007E003F0
0007E003F0
0007E003F0
0007E003F0
0007E003F0
0007E003F0
0007E003F0
0007E003F0
0007E003F0
0007E003F0
0007E003F0
0007E003F0
0007E003F0
0007E003F0
0007E003F0
0003E003F0
0003C003F0
00018001F0
00018000F0
0000000070
0000000000
0000000000
0000000070
00018000F0
00018001F0
0003C003F0
0003E003F0
0007E003F0
0007E003F0
0007E003F0
0007E003F0
0007E003F0
0007E003F0
0007E003F0
0007E003F0
0007E003F0
0007E003F0
0007E003F0
0007E003F0
0007E003F0
0007E003F0
0007E003F0
0007E003F0
0007E003F0
0007E003F0
0007E003F0
00000003F0
1FFFFFFDF0
3FFFFFFEF0
7FFFFFFF60
FFFFFFFF80
FFFFFFFF80
7FFFFFFF00
ENDCHAR
STARTCHAR E
ENCODING 69
SWIDTH 816 0
DWIDTH 52 0
BBX 37 64 6 0
BITMAP
07FFFFFFF0
0FFFFFFFF8
0FFFFFFFF8
27FFFFFFF0
73FFFFFFE0
F9FFFFFFC0
FC00000000
FC00000000
FC00000000
FC00000000
FC00000000
FC00000000
FC00000000
FC00000000
FC00000000
FC00000000
FC00000000
FC00000000
FC00000000
FC00000000
FC00000000
FC00000000
FC00000000
FC00000000
FC00000000
FC00000000
FC00000000
FC00000000
F800000000
F3FFC3FFC0
E7FFC3FFE0
0FFFE7FFF0
0FFFE7FFF8
E7FFC3FFE0
F3FFC3FFC0
F800000000
FC00000000
FC00000000
FC00000000
FC00000000
FC00000000
FC00000000
FC00000000
FC00000000
FC00000000
FC00000000
FC00000000
FC00000000
FC00000000
FC00000000
FC00000000
FC00000000
FC00000000
FC00000000
FC00000000
FC00000000
FC00000000
FC00000000
F9FFFFFFC0
73FFFFFFE0
27FFFFFFF0
0FFFFFFFF8
0FFFFFFFF8
07FFFFFFF0
ENDCHAR
STARTCHAR F
ENCODING 70
SWIDTH 816 0
DWIDTH 52 0
BBX 37 61 6 3
BITMAP
07FFFFFFF0
0FFFFFFFF8
0FFFFFFFF8
27FFFFFFF0
73FFFFFFE0
F9FFFFFFC0
FC00000000
FC00000000
FC00000000
FC00000000
FC00000000
FC00000000
FC00000000
FC00000000
FC00000000
FC00000000
FC00000000
FC00000000
FC00000000
FC00000000
FC00000000
FC00000000
FC00000000
FC00000000
FC00000000
FC00000000
FC00000000
FC00000000
F800000000
F3FFC3FFC0
E7FFC3FFE0
0FFFE7FFF0
0FFFE7FFF8
E7FFC3FFE0
F3FFC3FFC0
F800000000
FC00000000
FC00000000
FC00000000
FC00000000
FC00000000
FC00000000
FC00000000
FC00000000
FC00000000
FC00000000
FC00000000
FC00000000
FC00000000
FC00000000
FC00000000
FC00000000
FC00000000
FC00000000
FC00000000
FC00000000
FC00000000
FC00000000
F800000000
7000000000
2000000000
ENDCHAR
STARTCHAR G
ENCODING 71
SWIDTH 816 0
DWIDTH 52 0
BBX 40 64 6 0
BITMAP
07FFFFFFF0
0FFFFFFFF8
0FFFFFFFF8
27FFFFFFF0
73FFFFFFE0
F9FFFFFFC0
FC00000000
FC00000000
FC00000000
FC00000000
FC00000000
FC00000000
FC00000000
FC00000000
FC00000000
FC00000000
FC00000000
FC00000000
FC00000000
FC00000000
FC00000000
FC00000000
FC00000000
FC00000000
FC00000000
FC00000000
FC00000000
FC00000000
F800000000
F00003FFC0
E00003FFE0
000007FFF0
000007FFF8
E00003FFE7
F00003FFCF
F80000001F
FC0000003F
FC0000003F
FC0000003F
FC0000003F
FC0000003F
FC0000003F
FC0000003F
FC0000003F
FC0000003F
FC0000003F
FC0000003F
FC0000003F
FC0000003F
FC0000003F
FC0000003F
FC0000003F
FC0000003F
FC0000003F
FC0000003F
FC0000003F
FC0000003F
FC0000003F
F9FFFFFFDF
73FFFFFFEF
27FFFFFFF6
0FFFFFFFF8
0FFFFFFFF8
07FFFFFFF0
ENDCHAR
STARTCHAR H
ENCODING 72
SWIDTH 816 0
DWIDTH 52 0
BBX 40 58 6 3
BITMAP
2000000006
700000000F
F80000001F
FC0000003F
FC0000003F
FC0000003F
FC0000003F
FC0000003F
FC0000003F
FC0000003F
FC0000003F
FC0000003F
FC0000003F
FC0000003F
FC0000003F
FC0000003F
FC0000003F
FC0000003F
FC0000003F
FC0000003F
FC0000003F
FC0000003F
FC0000003F
FC0000003F
FC0000003F
F80000001F
F3FFC3FFCF
E7FFC3FFE7
0FFFE7FFF0
0FFFE7FFF8
E7FFC3FFE7
F3FFC3FFCF
F80000001F
FC0000003F
FC0000003F
FC0000003F
FC0000003F
FC0000003F
FC0000003F
FC0000003F
FC0000003F
FC0000003F
FC0000003F
FC0000003F
FC0000003F
FC0000003F
FC0000003F
FC0000003F
FC0000003F
FC0000003F
FC0000003F
FC0000003F
FC0000003F
FC0000003F
FC0000003F
F80000001F
700000000F
2000000006
ENDCHAR
STARTCHAR I
ENCODING 73
SWIDTH 816 0
DWIDTH 52 0
BBX 33 64 10 0
BITMAP
7FFFFFFF00
FFFFFFFF80
FFFFFFFF80
7FFFFFFF00
3FFFFFFE00
1FFFFFFC00
0000000000
0007E00000
0007E00000
0007E00000
0007E00000
0007E00000
0007E00000
0007E00000
0007E00000
0007E00000
0007E00000
0007E00000
0007E00000
0007E00000
0007E00000
0007E00000
0007E00000
0007E00000
0007E00000
0007E00000
0003E00000
0003C00000
0001800000
0001800000
0000000000
0000000000
0000000000
0000000000
0001800000
0001800000
0003C00000
0003E00000
0007E00000
0007E00000
0007E00000
0007E00000
0007E00000
0007E00000
0007E00000
0007E00000
0007E00000
0007E00000
0007E00000
0007E00000
0007E00000
0007E00000
0007E00000
0007E00000
0007E00000
0007E00000
0007E00000
0000000000
1FFFFFFC00
3FFFFFFE00
7FFFFFFF00
FFFFFFFF80
FFFFFFFF80
7FFFFFFF00
ENDCHAR
STARTCHAR J
ENCODING 74
SWIDTH 816 0
DWIDTH 52 0
BBX 40 61 6 0
BITMAP
0000000006
000000000F
000000001F
000000003F
000000003F
000000003F
000000003F
000000003F
000000003F
000000003F
000000003F
000000003F
000000003F
000000003F
000000003F
000000003F
000000003F
000000003F
000000003F
000000003F
000000003F
000000003F
000000003F
000000003F
000000003F
000000001F
000000000F
0000000007
0000000000
0000000000
E000000007
F00000000F
F80000001F
FC0000003F
FC0000003F
FC0000003F
FC0000003F
FC0000003F
FC0000003F
FC0000003F
FC0000003F
FC0000003F
FC0000003F
FC0000003F
FC0000003F
FC0000003F
FC0000003F
FC0000003F
FC0000003F
FC0000003F
FC0000003F
FC0000003F
FC0000003F
FC0000003F
FC0000003F
F9FFFFFFDF
73FFFFFFEF
27FFFFFFF6
0FFFFFFFF8
0FFFFFFFF8
07FFFFFFF0
ENDCHAR
STARTCHAR K
ENCODING 75
SWIDTH 816 0
DWIDTH 52 0
BBX 33 58 6 3
BITMAP
2000000000
7000000000
F800000000
FC00000000
FC00000180
FC00000380
FC00000380
FC00000780
FC00000780
FC00000F80
FC00001F80
FC00001F80
FC00003F80
FC00003F80
FC00007F00
FC0000FE00
FC0000FE00
FC0000FC00
FC0000FC00
FC0000F800
FC0000F000
FC0000F000
FC0000E000
FC0000E000
FC0000C000
F800000000
F3FFC00000
E7FFC00000
0FFFE00000
0FFFE00000
E7FFC00000
F3FFC00000
F800000000
FC0000C000
FC0000E000
FC0000E000
FC0000F000
FC0000F000
FC0000F800
FC0000FC00
FC0000FC00
FC0000FE00
FC0000FE00
FC00007F00
FC00003F80
FC00003F80
FC00001F80
FC00001F80
FC00000F80
FC00000780
FC00000780
FC00000380
FC00000380
FC00000180
FC00000000
F800000000
7000000000
2000000000
ENDCHAR
STARTCHAR L
ENCODING 76
SWIDTH 816 0
DWIDTH 52 0
BBX 37 61 6 0
BITMAP
2000000000
7000000000
F800000000
FC00000000
FC00000000
FC00000000
FC00000000
FC00000000
FC00000000
FC00000000
FC00000000
FC00000000
FC00000000
FC00000000
FC00000000
FC00000000
FC00000000
FC00000000
FC00000000
FC00000000
FC00000000
FC00000000
FC00000000
FC00000000
FC00000000
F800000000
F000000000
E000000000
0000000000
0000000000
E000000000
F000000000
F800000000
FC00000000
FC00000000
FC00000000
FC00000000
FC00000000
FC00000000
FC00000000
FC00000000
FC00000000
FC00000000
FC00000000
FC00000000
FC00000000
FC00000000
FC00000000
FC00000000
FC00000000
FC00000000
FC00000000
FC00000000
FC00000000
FC00000000
F9FFFFFFC0
73FFFFFFE0
27FFFFFFF0
0FFFFFFFF8
0FFFFFFFF8
07FFFFFFF0
ENDCHAR
STARTCHAR M
ENCODING 77
SWIDTH 816 0
DWIDTH 52 0
BBX 40 58 6 3
BITMAP
2000000006
700000000F
F80000001F
FC0000003F
FC800001BF
FCC00003BF
FCE00003BF
FCE00007BF
FCF00007BF
FCF0000FBF
FCF8001FBF
FCF8001FBF
FCFC003FBF
FCFE003FBF
FCFE007F3F
FC7F00FE3F
FC7F00FE3F
FC3F00FC3F
FC1F00FC3F
FC1F00F83F
FC0F00F03F
FC0F00F03F
FC0700E03F
FC0300E03F
FC0300C03F
F80000001F
F00000000F
E000000007
0000000000
0000000000
E000000007
F00018000F
F80018001F
FC003C003F
FC003E003F
FC007E003F
FC007E003F
FC007E003F
FC007E003F
FC007E003F
FC007E003F
FC007E003F
FC007E003F
FC007E003F
FC007E003F
FC007E003F
FC007E003F
FC007E003F
FC007E003F
FC007E003F
FC007E003F
FC007E003F
FC007E003F
FC007E003F
FC0000003F
F80000001F
700000000F
2000000006
ENDCHAR
STARTCHAR N
ENCODING 78
SWIDTH 816 0
DWIDTH 52 0
BBX 40 58 6 3
BITMAP
2000000006
700000000F
F80000001F
FC0000003F
FC8000003F
FCC000003F
FCE000003F
FCE000003F
FCF000003F
FCF000003F
FCF800003F
FCF800003F
FCFC00003F
FCFE00003F
FCFE00003F
FC7F00003F
FC7F00003F
FC3F00003F
FC1F00003F
FC1F00003F
FC0F00003F
FC0F00003F
FC0700003F
FC0300003F
FC0300003F
F80000001F
F00000000F
E000000007
0000000000
0000000000
E000000007
F00000000F
F80000001F
FC0000C03F
FC0000E03F
FC0000E03F
FC0000F03F
FC0000F03F
FC0000F83F
FC0000FC3F
FC0000FC3F
FC0000FE3F
FC0000FE3F
FC00007F3F
FC00003FBF
FC00003FBF
FC00001FBF
FC00001FBF
FC00000FBF
FC000007BF
FC000007BF
FC000003BF
FC000003BF
FC000001BF
FC0000003F
F80000001F
700000000F
2000000006
ENDCHAR
STARTCHAR O
ENCODING 79
SWIDTH 816 0
DWIDTH 52 0
BBX 40 64 6 0
BITMAP
07FFFFFFF0
0FFFFFFFF8
0FFFFFFFF8
27FFFFFFF6
73FFFFFFEF
F9FFFFFFDF
FC0000003F
FC0000003F
FC0000003F
FC0000003F
FC0000003F
FC0000003F
FC0000003F
FC0000003F
FC0000003F
FC0000003F
FC0000003F
FC0000003F
FC0000003F
FC0000003F
FC0000003F
FC0000003F
FC0000003F
FC0000003F
FC0000003F
FC0000003F
FC0000003F
FC0000003F
F80000001F
F00000000F
E000000007
0000000000
0000000000
E000000007
F00000000F
F80000001F
FC0000003F
FC0000003F
FC0000003F
FC0000003F
FC0000003F
FC0000003F
FC0000003F
FC0000003F
FC0000003F
FC0000003F
FC0000003F
FC0000003F
FC0000003F
FC0000003F
FC0000003F
FC0000003F
FC0000003F
FC0000003F
FC0000003F
FC0000003F
FC0000003F
FC0000003F
F9FFFFFFDF
73FFFFFFEF
27FFFFFFF6
0FFFFFFFF8
0FFFFFFFF8
07FFFFFFF0
ENDCHAR
STARTCHAR P
ENCODING 80
SWIDTH 816 0
DWIDTH 52 0
BBX 40 61 6 3
BITMAP
07FFFFFFF0
0FFFFFFFF8
0FFFFFFFF8
27FFFFFFF6
73FFFFFFEF
F9FFFFFFDF
FC0000003F
FC0000003F
FC0000003F
FC0000003F
FC0000003F
FC0000003F
FC0000003F
FC0000003F
FC0000003F
FC0000003F
FC0000003F
FC0000003F
FC0000003F
FC0000003F
FC0000003F
FC0000003F
FC0000003F
FC0000003F
FC0000003F
FC0000003F
FC0000003F
FC0000003F
F80000001F
F3FFC3FFCF
E7FFC3FFE7
0FFFE7FFF0
0FFFE7FFF8
E7FFC3FFE0
F3FFC3FFC0
F800000000
FC00000000
FC00000000
FC00000000
FC00000000
FC00000000
FC00000000
FC00000000
FC00000000
FC00000000
FC00000000
FC00000000
FC00000000
FC00000000
FC00000000
FC00000000
FC00000000
FC00000000
FC00000000
FC00000000
FC00000000
FC00000000
FC00000000
F800000000
7000000000
2000000000
ENDCHAR
STARTCHAR Q
ENCODING 81
SWIDTH 816 0
DWIDTH 52 0
BBX 40 64 6 0
BITMAP
07FFFFFFF0
0FFFFFFFF8
0FFFFFFFF8
27FFFFFFF6
73FFFFFFEF
F9FFFFFFDF
FC0000003F
FC0000003F
FC0000003F
FC0000003F
FC0000003F
FC0000003F
FC0000003F
FC0000003F
FC0000003F
FC0000003F
FC0000003F
FC0000003F
FC0000003F
FC0000003F
FC0000003F
FC0000003F
FC0000003F
FC0000003F
FC0000003F
FC0000003F
FC0000003F
FC0000003F
F80000001F
F00000000F
E000000007
0000000000
0000000000
E000000007
F00000000F
F80000001F
FC0000C03F
FC0000E03F
FC0000E03F
FC0000F03F
FC0000F03F
FC0000F83F
FC0000FC3F
FC0000FC3F
FC0000FE3F
FC0000FE3F
FC00007F3F
FC00003FBF
FC00003FBF
FC00001FBF
FC00001FBF
FC00000FBF
FC000007BF
FC000007BF
FC000003BF
FC000003BF
FC000001BF
FC0000003F
F9FFFFFFDF
73FFFFFFEF
27FFFFFFF6
0FFFFFFFF8
0FFFFFFFF8
07FFFFFFF0
ENDCHAR
STARTCHAR R
ENCODING 82
SWIDTH 816 0
DWIDTH 52 0
BBX 40 61 6 3
BITMAP
07FFFFFFF0
0FFFFFFFF8
0FFFFFFFF8
27FFFFFFF6
73FFFFFFEF
F9FFFFFFDF
FC0000003F
FC0000003F
FC0000003F
FC0000003F
FC0000003F
FC0000003F
FC0000003F
FC0000003F
FC0000003F
FC0000003F
FC0000003F
FC0000003F
FC0000003F
FC0000003F
FC0000003F
FC0000003F
FC0000003F
FC0000003F
FC0000003F
FC0000003F
FC0000003F
FC0000003F
F80000001F
F3FFC3FFCF
E7FFC3FFE7
0FFFE7FFF0
0FFFE7FFF8
E7FFC3FFE0
F3FFC3FFC0
F800000000
FC0000C000
FC0000E000
FC0000E000
FC0000F000
FC0000F000
FC0000F800
FC0000FC00
FC0000FC00
FC0000FE00
FC0000FE00
FC00007F00
FC00003F80
FC00003F80
FC00001F80
FC00001F80
FC00000F80
FC00000780
FC00000780
FC00000380
FC00000380
FC00000180
FC00000000
F800000000
7000000000
2000000000
ENDCHAR
STARTCHAR S
ENCODING 83
SWIDTH 816 0
DWIDTH 52 0
BBX 40 64 6 0
BITMAP
07FFFFFFF0
0FFFFFFFF8
0FFFFFFFF8
27FFFFFFF0
73FFFFFFE0
F9FFFFFFC0
FC00000000
FC00000000
FC00000000
FC00000000
FC00000000
FC00000000
FC00000000
FC00000000
FC00000000
FC00000000
FC00000000
FC00000000
FC00000000
FC00000000
FC00000000
FC00000000
FC00000000
FC00000000
FC00000000
FC00000000
FC00000000
FC00000000
F800000000
F3FFC3FFC0
E7FFC3FFE0
0FFFE7FFF0
0FFFE7FFF8
07FFC3FFE7
03FFC3FFCF
000000001F
000000003F
000000003F
000000003F
000000003F
000000003F
000000003F
000000003F
000000003F
000000003F
000000003F
000000003F
000000003F
000000003F
000000003F
000000003F
000000003F
000000003F
000000003F
000000003F
000000003F
000000003F
000000003F
01FFFFFFDF
03FFFFFFEF
07FFFFFFF6
0FFFFFFFF8
0FFFFFFFF8
07FFFFFFF0
ENDCHAR
STARTCHAR T
ENCODING 84
SWIDTH 816 0
DWIDTH 52 0
BBX 33 57 10 7
BITMAP
7FFFFFFF00
FFFFFFFF80
FFFFFFFF80
7FFFFFFF00
3FFFFFFE00
1FFFFFFC00
0000000000
0007E00000
0007E00000
0007E00000
0007E00000
0007E00000
0007E00000
0007E00000
0007E00000
0007E00000
0007E00000
0007E00000
0007E00000
0007E00000
0007E00000
0007E00000
0007E00000
0007E00000
0007E00000
0007E00000
0003E00000
0003C00000
0001800000
0001800000
0000000000
0000000000
0000000000
0000000000
0001800000
0001800000
0003C00000
0003E00000
0007E00000
0007E00000
0007E00000
0007E00000
0007E00000
0007E00000
0007E00000
0007E00000
0007E00000
0007E00000
0007E00000
0007E00000
0007E00000
0007E00000
0007E00000
0007E00000
0007E00000
0007E00000
0007E00000
ENDCHAR
STARTCHAR U
ENCODING 85
SWIDTH 816 0
DWIDTH 52 0
BBX 40 61 6 0
BITMAP
2000000006
700000000F
F80000001F
FC0000003F
FC0000003F
FC0000003F
FC0000003F
FC0000003F
FC0000003F
FC0000003F
FC0000003F
FC0000003F
FC0000003F
FC0000003F
FC0000003F
FC0000003F
FC0000003F
FC0000003F
FC0000003F
FC0000003F
FC0000003F
FC0000003F
FC0000003F
FC0000003F
FC0000003F
F80000001F
F00000000F
E000000007
0000000000
0000000000
E000000007
F00000000F
F80000001F
FC0000003F
FC0000003F
FC0000003F
FC0000003F
FC0000003F
FC0000003F
FC0000003F
FC0000003F
FC0000003F
FC0000003F
FC0000003F
FC0000003F
FC0000003F
FC0000003F
FC0000003F
FC0000003F
FC0000003F
FC0000003F
FC0000003F
FC0000003F
FC0000003F
FC0000003F
F9FFFFFFDF
73FFFFFFEF
27FFFFFFF6
0FFFFFFFF8
0FFFFFFFF8
07FFFFFFF0
ENDCHAR
STARTCHAR V
ENCODING 86
SWIDTH 816 0
DWIDTH 52 0
BBX 33 58 6 3
BITMAP
2000000000
7000000000
F800000000
FC00000000
FC00000180
FC00000380
FC00000380
FC00000780
FC00000780
FC00000F80
FC00001F80
FC00001F80
FC00003F80
FC00003F80
FC00007F00
FC0000FE00
FC0000FE00
FC0000FC00
FC0000FC00
FC0000F800
FC0000F000
FC0000F000
FC0000E000
FC0000E000
FC0000C000
F800000000
F000000000
E000000000
0000000000
0000000000
E000000000
F000000000
F800000000
FC03000000
FC07000000
FC07000000
FC0F000000
FC0F000000
FC1F000000
FC1F000000
FC3F000000
FC7F000000
FC7F000000
FCFE000000
FCFE000000
FCFC000000
FCF8000000
FCF8000000
FCF0000000
FCF0000000
FCE0000000
FCE0000000
FCC0000000
FC80000000
FC00000000
F800000000
7000000000
2000000000
ENDCHAR
STARTCHAR W
ENCODING 87
SWIDTH 816 0
DWIDTH 52 0
BBX 40 58 6 3
BITMAP
2000000006
700000000F
F80000001F
FC0000003F
FC007E003F
FC007E003F
FC007E003F
FC007E003F
FC007E003F
FC007E003F
FC007E003F
FC007E003F
FC007E003F
FC007E003F
FC007E003F
FC007E003F
FC007E003F
FC007E003F
FC007E003F
FC007E003F
FC007E003F
FC007E003F
FC007E003F
FC003E003F
FC003C003F
F80018001F
F00018000F
E000000007
0000000000
0000000000
E000000007
F00000000F
F80000001F
FC0300C03F
FC0700E03F
FC0700E03F
FC0F00F03F
FC0F00F03F
FC1F00F83F
FC1F00FC3F
FC3F00FC3F
FC7F00FE3F
FC7F00FE3F
FCFE007F3F
FCFE003FBF
FCFC003FBF
FCF8001FBF
FCF8001FBF
FCF0000FBF
FCF00007BF
FCE00007BF
FCE00003BF
FCC00003BF
FC800001BF
FC0000003F
F80000001F
700000000F
2000000006
ENDCHAR
STARTCHAR X
ENCODING 88
SWIDTH 816 0
DWIDTH 52 0
BBX 25 50 14 7
BITMAP
80000180
C0000380
E0000380
E0000780
F0000780
F0000F80
F8001F80
F8001F80
FC003F80
FE003F80
FE007F00
7F00FE00
7F00FE00
3F00FC00
1F00FC00
1F00F800
0F00F000
0F00F000
0700E000
0300E000
0300C000
00000000
00000000
00000000
00000000
00000000
00000000
00000000
00000000
0300C000
0700E000
0700E000
0F00F000
0F00F000
1F00F800
1F00FC00
3F00FC00
7F00FE00
7F00FE00
FE007F00
FE003F80
FC003F80
F8001F80
F8001F80
F0000F80
F0000780
E0000780
E0000380
C0000380
80000180
ENDCHAR
STARTCHAR Y
ENCODING 89
SWIDTH 816 0
DWIDTH 52 0
BBX 25 50 14 7
BITMAP
80000180
C0000380
E0000380
E0000780
F0000780
F0000F80
F8001F80
F8001F80
FC003F80
FE003F80
FE007F00
7F00FE00
7F00FE00
3F00FC00
1F00FC00
1F00F800
0F00F000
0F00F000
0700E000
0300E000
0300C000
00000000
00000000
00000000
00000000
00000000
00000000
00180000
00180000
003C0000
003E0000
007E0000
007E0000
007E0000
007E0000
007E0000
007E0000
007E0000
007E0000
007E0000
007E0000
007E0000
007E0000
007E0000
007E0000
007E0000
007E0000
007E0000
007E0000
007E0000
ENDCHAR
STARTCHAR Z
ENCODING 90
SWIDTH 816 0
DWIDTH 52 0
BBX 33 64 10 0
BITMAP
7FFFFFFF00
FFFFFFFF80
FFFFFFFF80
7FFFFFFF00
3FFFFFFE00
1FFFFFFC00
0000000000
0000001800
0000003800
0000003800
0000007800
0000007800
000000F800
000001F800
000001F800
000003F800
000003F800
000007F000
00000FE000
00000FE000
00000FC000
00000FC000
00000F8000
00000F0000
00000F0000
00000E0000
00000E0000
00000C0000
0000000000
0000000000
0000000000
0000000000
0000000000
0000000000
0000000000
0000000000
0030000000
0070000000
0070000000
00F0000000
00F0000000
01F0000000
01F0000000
03F0000000
07F0000000
07F0000000
0FE0000000
0FE0000000
0FC0000000
0F80000000
0F80000000
0F00000000
0F00000000
0E00000000
0E00000000
0C00000000
0800000000
0000000000
1FFFFFFC00
3FFFFFFE00
7FFFFFFF00
FFFFFFFF80
FFFFFFFF80
7FFFFFFF00
ENDCHAR
STARTCHAR backslash
ENCODING 92
SWIDTH 816 0
DWIDTH 52 0
BBX 25 50 14 7
BITMAP
80000000
C0000000
E0000000
E0000000
F0000000
F0000000
F8000000
F8000000
FC000000
FE000000
FE000000
7F000000
7F000000
3F000000
1F000000
1F000000
0F000000
0F000000
07000000
03000000
03000000
00000000
00000000
00000000
00000000
00000000
00000000
00000000
00000000
0000C000
0000E000
0000E000
0000F000
0000F000
0000F800
0000FC00
0000FC00
0000FE00
0000FE00
00007F00
00003F80
00003F80
00001F80
00001F80
00000F80
00000780
00000780
00000380
00000380
00000180
ENDCHAR
STARTCHAR asciicircum
ENCODING 94
SWIDTH 816 0
DWIDTH 52 0
BBX 16 28 6 33
BITMAP
2000
7000
F800
FC00
FC80
FCC0
FCE0
FCE0
FCF0
FCF0
FCF8
FCF8
FCFC
FCFE
FCFE
FC7F
FC7F
FC3F
FC1F
FC1F
FC0F
FC0F
FC07
FC03
FC03
F800
F000
E000
ENDCHAR
STARTCHAR underscore
ENCODING 95
SWIDTH 816 0
DWIDTH 52 0
BBX 33 6 10 0
BITMAP
1FFFFFFC00
3FFFFFFE00
7FFFFFFF00
FFFFFFFF80
FFFFFFFF80
7FFFFFFF00
ENDCHAR
STARTCHAR grave
ENCODING 96
SWIDTH 816 0
DWIDTH 52 0
BBX 8 21 14 36
BITMAP
80
C0
E0
E0
F0
F0
F8
F8
FC
FE
FE
7F
7F
3F
1F
1F
0F
0F
07
03
03
ENDCHAR
STARTCHAR a
ENCODING 97
SWIDTH 816 0
DWIDTH 52 0
BBX 40 61 6 3
BITMAP
07FFFFFFF0
0FFFFFFFF8
0FFFFFFFF8
27FFFFFFF6
73FFFFFFEF
F9FFFFFFDF
FC0000003F
FC0000003F
FC0000003F
FC0000003F
FC0000003F
FC0000003F
FC0000003F
FC0000003F
FC0000003F
FC0000003F
FC0000003F
FC0000003F
FC0000003F
FC0000003F
FC0000003F
FC0000003F
FC0000003F
FC0000003F
FC0000003F
FC0000003F
FC0000003F
FC0000003F
F80000001F
F3FFC3FFCF
E7FFC3FFE7
0FFFE7FFF0
0FFFE7FFF8
E7FFC3FFE7
F3FFC3FFCF
F80000001F
FC0000003F
FC0000003F
FC0000003F
FC0000003F
FC0000003F
FC0000003F
FC0000003F
FC0000003F
FC0000003F
FC0000003F
FC0000003F
FC0000003F
FC0000003F
FC0000003F
FC0000003F
FC0000003F
FC0000003F
FC0000003F
FC0000003F
FC0000003F
FC0000003F
FC0000003F
F80000001F
700000000F
2000000006
ENDCHAR
STARTCHAR b
ENCODING 98
SWIDTH 816 0
DWIDTH 52 0
BBX 36 64 10 0
BITMAP
7FFFFFFF00
FFFFFFFF80
FFFFFFFF80
7FFFFFFF60
3FFFFFFEF0
1FFFFFFDF0
00000003F0
0007E003F0
0007E003F0
0007E003F0
0007E003F0
0007E003F0
0007E003F0
0007E003F0
0007E003F0
0007E003F0
0007E003F0
0007E003F0
0007E003F0
0007E003F0
0007E003F0
0007E003F0
0007E003F0
0007E003F0
0007E003F0
0007E003F0
0003E003F0
0003C003F0
00018001F0
0001BFFCF0
00003FFE70
00007FFF00
00007FFF80
00003FFE70
0001BFFCF0
00018001F0
0003C003F0
0003E003F0
0007E003F0
0007E003F0
0007E003F0
0007E003F0
0007E003F0
0007E003F0
0007E003F0
0007E003F0
0007E003F0
0007E003F0
0007E003F0
0007E003F0
0007E003F0
0007E003F0
0007E003F0
0007E003F0
0007E003F0
0007E003F0
0007E003F0
00000003F0
1FFFFFFDF0
3FFFFFFEF0
7FFFFFFF60
FFFFFFFF80
FFFFFFFF80
7FFFFFFF00
ENDCHAR
STARTCHAR c
ENCODING 99
SWIDTH 816 0
DWIDTH 52 0
BBX 37 64 6 0
BITMAP
07FFFFFFF0
0FFFFFFFF8
0FFFFFFFF8
27FFFFFFF0
73FFFFFFE0
F9FFFFFFC0
FC00000000
FC00000000
FC00000000
FC00000000
FC00000000
FC00000000
FC00000000
FC00000000
FC00000000
FC00000000
FC00000000
FC00000000
FC00000000
FC00000000
FC00000000
FC00000000
FC00000000
FC00000000
FC00000000
FC00000000
FC00000000
FC00000000
F800000000
F000000000
E000000000
0000000000
0000000000
E000000000
F000000000
F800000000
FC00000000
FC00000000
FC00000000
FC00000000
FC00000000
FC00000000
FC00000000
FC00000000
FC00000000
FC00000000
FC00000000
FC00000000
FC00000000
FC00000000
FC00000000
FC00000000
FC00000000
FC00000000
FC00000000
FC00000000
FC00000000
FC00000000
F9FFFFFFC0
73FFFFFFE0
27FFFFFFF0
0FFFFFFFF8
0FFFFFFFF8
07FFFFFFF0
ENDCHAR
STARTCHAR d
ENCODING 100
SWIDTH 816 0
DWIDTH 52 0
BBX 36 64 10 0
BITMAP
7FFFFFFF00
FFFFFFFF80
FFFFFFFF80
7FFFFFFF60
3FFFFFFEF0
1FFFFFFDF0
00000003F0
0007E003F0
0007E003F0
0007E003F0
0007E003F0
0007E003F0
0007E003F0
0007E003F0
0007E003F0
0007E003F0
0007E003F0
0007E003F0
0007E003F0
0007E003F0
0007E003F0
0007E003F0
0007E003F0
0007E003F0
0007E003F0
0007E003F0
0003E003F0
0003C003F0
00018001F0
00018000F0
0000000070
0000000000
0000000000
0000000070
00018000F0
00018001F0
0003C003F0
0003E003F0
0007E003F0
0007E003F0
0007E003F0
0007E003F0
0007E003F0
0007E003F0
0007E003F0
0007E003F0
0007E003F0
0007E003F0
0007E003F0
0007E003F0
0007E003F0
0007E003F0
0007E003F0
0007E003F0
0007E003F0
0007E003F0
0007E003F0
00000003F0
1FFFFFFDF0
3FFFFFFEF0
7FFFFFFF60
FFFFFFFF80
FFFFFFFF80
7FFFFFFF00
ENDCHAR
STARTCHAR e
ENCODING 101
SWIDTH 816 0
DWIDTH 52 0
BBX 37 64 6 0
BITMAP
07FFFFFFF0
0FFFFFFFF8
0FFFFFFFF8
27FFFFFFF0
73FFFFFFE0
F9FFFFFFC0
FC00000000
FC00000000
FC00000000
FC00000000
FC00000000
FC00000000
FC00000000
FC00000000
FC00000000
FC00000000
FC00000000
FC00000000
FC00000000
FC00000000
FC00000000
FC00000000
FC00000000
FC00000000
FC00000000
FC00000000
FC00000000
FC00000000
F800000000
F3FFC3FFC0
E7FFC3FFE0
0FFFE7FFF0
0FFFE7FFF8
E7FFC3FFE0
F3FFC3FFC0
F800000000
FC00000000
FC00000000
FC00000000
FC00000000
FC00000000
FC00000000
FC00000000
FC00000000
FC00000000
FC00000000
FC00000000
FC00000000
FC00000000
FC00000000
FC00000000
FC00000000
FC00000000
FC00000000
FC00000000
FC00000000
FC00000000
FC00000000
F9FFFFFFC0
73FFFFFFE0
27FFFFFFF0
0FFFFFFFF8
0FFFFFFFF8
07FFFFFFF0
ENDCHAR
STARTCHAR f
ENCODING 102
SWIDTH 816 0
DWIDTH 52 0
BBX 37 61 6 3
BITMAP
07FFFFFFF0
0FFFFFFFF8
0FFFFFFFF8
27FFFFFFF0
73FFFFFFE0
F9FFFFFFC0
FC00000000
FC00000000
FC00000000
FC00000000
FC00000000
FC00000000
FC00000000
FC00000000
FC00000000
FC00000000
FC00000000
FC00000000
FC00000000
FC00000000
FC00000000
FC00000000
FC00000000
FC00000000
FC00000000
FC00000000
FC00000000
FC00000000
F800000000
F3FFC3FFC0
E7FFC3FFE0
0FFFE7FFF0
0FFFE7FFF8
E7FFC3FFE0
F3FFC3FFC0
F800000000
FC00000000
FC00000000
FC00000000
FC00000000
FC00000000
FC00000000
FC00000000
FC00000000
FC00000000
FC00000000
FC00000000
FC00000000
FC00000000
FC00000000
FC00000000
FC00000000
FC00000000
FC00000000
FC00000000
FC00000000
FC00000000
FC00000000
F800000000
7000000000
2000000000
ENDCHAR
STARTCHAR g
ENCODING 103
SWIDTH 816 0
DWIDTH 52 0
BBX 40 64 6 0
BITMAP
07FFFFFFF0
0FFFFFFFF8
0FFFFFFFF8
27FFFFFFF0
73FFFFFFE0
F9FFFFFFC0
FC00000000
FC00000000
FC00000000
FC00000000
FC00000000
FC00000000
FC00000000
FC00000000
FC00000000
FC00000000
FC00000000
FC00000000
FC00000000
FC00000000
FC00000000
FC00000000
FC00000000
FC00000000
FC00000000
FC00000000
FC00000000
FC00000000
F800000000
F00003FFC0
E00003FFE0
000007FFF0
000007FFF8
E00003FFE7
F00003FFCF
F80000001F
FC0000003F
FC0000003F
FC0000003F
FC0000003F
FC0000003F
FC0000003F
FC0000003F
FC0000003F
FC0000003F
FC0000003F
FC0000003F
FC0000003F
FC0000003F
FC0000003F
FC0000003F
FC0000003F
FC0000003F
FC0000003F
FC0000003F
FC0000003F
FC0000003F
FC0000003F
F9FFFFFFDF
73FFFFFFEF
27FFFFFFF6
0FFFFFFFF8
0FFFFFFFF8
07FFFFFFF0
ENDCHAR
STARTCHAR h
ENCODING 104
SWIDTH 816 0
DWIDTH 52 0
BBX 40 58 6 3
BITMAP
2000000006
700000000F
F80000001F
FC0000003F
FC0000003F
FC0000003F
FC0000003F
FC0000003F
FC0000003F
FC0000003F
FC0000003F
FC0000003F
FC0000003F
FC0000003F
FC0000003F
FC0000003F
FC0000003F
FC0000003F
FC0000003F
FC0000003F
FC0000003F
FC0000003F
FC0000003F
FC0000003F
FC0000003F
F80000001F
F3FFC3FFCF
E7FFC3FFE7
0FFFE7FFF0
0FFFE7FFF8
E7FFC3FFE7
F3FFC3FFCF
F80000001F
FC0000003F
FC0000003F
FC0000003F
FC0000003F
FC0000003F
FC0000003F
FC0000003F
FC0000003F
FC0000003F
FC0000003F
FC0000003F
FC0000003F
FC0000003F
FC0000003F
FC0000003F
FC0000003F
FC0000003F
FC0000003F
FC0000003F
FC0000003F
FC0000003F
FC0000003F
F80000001F
700000000F
2000000006
ENDCHAR
STARTCHAR i
ENCODING 105
SWIDTH 816 0
DWIDTH 52 0
BBX 33 64 10 0
BITMAP
7FFFFFFF00
FFFFFFFF80
FFFFFFFF80
7FFFFFFF00
3FFFFFFE00
1FFFFFFC00
0000000000
0007E00000
0007E00000
0007E00000
0007E00000
0007E00000
0007E00000
0007E00000
0007E00000
0007E00000
0007E00000
0007E00000
0007E00000
0007E00000
0007E00000
0007E00000
0007E00000
0007E00000
0007E00000
0007E00000
0003E00000
0003C00000
0001800000
0001800000
0000000000
0000000000
0000000000
0000000000
0001800000
0001800000
0003C00000
0003E00000
0007E00000
0007E00000
0007E00000
0007E00000
0007E00000
0007E00000
0007E00000
0007E00000
0007E00000
0007E00000
0007E00000
0007E00000
0007E00000
0007E00000
0007E00000
0007E00000
0007E00000
0007E00000
0007E00000
0000000000
1FFFFFFC00
3FFFFFFE00
7FFFFFFF00
FFFFFFFF80
FFFFFFFF80
7FFFFFFF00
ENDCHAR
STARTCHAR j
ENCODING 106
SWIDTH 816 0
DWIDTH 52 0
BBX 40 61 6 0
BITMAP
0000000006
000000000F
000000001F
000000003F
000000003F
000000003F
000000003F
000000003F
000000003F
000000003F
000000003F
000000003F
000000003F
000000003F
000000003F
000000003F
000000003F
000000003F
000000003F
000000003F
000000003F
000000003F
000000003F
000000003F
000000003F
000000001F
000000000F
0000000007
0000000000
0000000000
E000000007
F00000000F
F80000001F
FC0000003F
FC0000003F
FC0000003F
FC0000003F
FC0000003F
FC0000003F
FC0000003F
FC0000003F
FC0000003F
FC0000003F
FC0000003F
FC0000003F
FC0000003F
FC0000003F
FC0000003F
FC0000003F
FC0000003F
FC0000003F
FC0000003F
FC0000003F
FC0000003F
FC0000003F
F9FFFFFFDF
73FFFFFFEF
27FFFFFFF6
0FFFFFFFF8
0FFFFFFFF8
07FFFFFFF0
ENDCHAR
STARTCHAR k
ENCODING 107
SWIDTH 816 0
DWIDTH 52 0
BBX 33 58 6 3
BITMAP
2000000000
7000000000
F800000000
FC00000000
FC00000180
FC00000380
FC00000380
FC00000780
FC00000780
FC00000F80
FC00001F80
FC00001F80
FC00003F80
FC00003F80
FC00007F00
FC0000FE00
FC0000FE00
FC0000FC00
FC0000FC00
FC0000F800
FC0000F000
FC0000F000
FC0000E000
FC0000E000
FC0000C000
F800000000
F3FFC00000
E7FFC00000
0FFFE00000
0FFFE00000
E7FFC00000
F3FFC00000
F800000000
FC0000C000
FC0000E000
FC0000E000
FC0000F000
FC0000F000
FC0000F800
FC0000FC00
FC0000FC00
FC0000FE00
FC0000FE00
FC00007F00
FC00003F80
FC00003F80
FC00001F80
FC00001F80
FC00000F80
FC00000780
FC00000780
FC00000380
FC00000380
FC00000180
FC00000000
F800000000
7000000000
2000000000
ENDCHAR
STARTCHAR l
ENCODING 108
SWIDTH 816 0
DWIDTH 52 0
BBX 37 61 6 0
BITMAP
2000000000
7000000000
F800000000
FC00000000
FC00000000
FC00000000
FC00000000
FC00000000
FC00000000
FC00000000
FC00000000
FC00000000
FC00000000
FC00000000
FC00000000
FC00000000
FC00000000
FC00000000
FC00000000
FC00000000
FC00000000
FC00000000
FC00000000
FC00000000
FC00000000
F800000000
F000000000
E000000000
0000000000
0000000000
E000000000
F000000000
F800000000
FC00000000
FC00000000
FC00000000
FC00000000
FC00000000
FC00000000
FC00000000
FC00000000
FC00000000
FC00000000
FC00000000
FC00000000
FC00000000
FC00000000
FC00000000
FC00000000
FC00000000
FC00000000
FC00000000
FC00000000
FC00000000
FC00000000
F9FFFFFFC0
73FFFFFFE0
27FFFFFFF0
0FFFFFFFF8
0FFFFFFFF8
07FFFFFFF0
ENDCHAR
STARTCHAR m
ENCODING 109
SWIDTH 816 0
DWIDTH 52 0
BBX 40 58 6 3
BITMAP
2000000006
700000000F
F80000001F
FC0000003F
FC800001BF
FCC00003BF
FCE00003BF
FCE00007BF
FCF00007BF
FCF0000FBF
FCF8001FBF
FCF8001FBF
FCFC003FBF
FCFE003FBF
FCFE007F3F
FC7F00FE3F
FC7F00FE3F
FC3F00FC3F
FC1F00FC3F
FC1F00F83F
FC0F00F03F
FC0F00F03F
FC0700E03F
FC0300E03F
FC0300C03F
F80000001F
F00000000F
E000000007
0000000000
0000000000
E000000007
F00018000F
F80018001F
FC003C003F
FC003E003F
FC007E003F
FC007E003F
FC007E003F
FC007E003F
FC007E003F
FC007E003F
FC007E003F
FC007E003F
FC007E003F
FC007E003F
FC007E003F
FC007E003F
FC007E003F
FC007E003F
FC007E003F
FC007E003F
FC007E003F
FC007E003F
FC007E003F
FC0000003F
F80000001F
700000000F
2000000006
ENDCHAR
STARTCHAR n
ENCODING 110
SWIDTH 816 0
DWIDTH 52 0
BBX 40 58 6 3
BITMAP
2000000006
700000000F
F80000001F
FC0000003F
FC8000003F
FCC000003F
FCE000003F
FCE000003F
FCF000003F
FCF000003F
FCF800003F
FCF800003F
FCFC00003F
FCFE00003F
FCFE00003F
FC7F00003F
FC7F00003F
FC3F00003F
FC1F00003F
FC1F00003F
FC0F00003F
FC0F00003F
FC0700003F
FC0300003F
FC0300003F
F80000001F
F00000000F
E000000007
0000000000
0000000000
E000000007
F00000000F
F80000001F
FC0000C03F
FC0000E03F
FC0000E03F
FC0000F03F
FC0000F03F
FC0000F83F
FC0000FC3F
FC0000FC3F
FC0000FE3F
FC0000FE3F
FC00007F3F
FC00003FBF
FC00003FBF
FC00001FBF
FC00001FBF
FC00000FBF
FC000007BF
FC000007BF
FC000003BF
FC000003BF
FC000001BF
FC0000003F
F80000001F
700000000F
2000000006
ENDCHAR
STARTCHAR o
ENCODING 111
SWIDTH 816 0
DWIDTH 52 0
BBX 40 64 6 0
BITMAP
07FFFFFFF0
0FFFFFFFF8
0FFFFFFFF8
27FFFFFFF6
73FFFFFFEF
F9FFFFFFDF
FC0000003F
FC0000003F
FC0000003F
FC0000003F
FC0000003F
FC0000003F
FC0000003F
FC0000003F
FC0000003F
FC0000003F
FC0000003F
FC0000003F
FC0000003F
FC0000003F
FC0000003F
FC0000003F
FC0000003F
FC0000003F
FC0000003F
FC0000003F
FC0000003F
FC0000003F
F80000001F
F00000000F
E000000007
0000000000
0000000000
E000000007
F00000000F
F80000001F
FC0000003F
FC0000003F
FC0000003F
FC0000003F
FC0000003F
FC0000003F
FC0000003F
FC0000003F
FC0000003F
FC0000003F
FC0000003F
FC0000003F
FC0000003F
FC0000003F
FC0000003F
FC0000003F
FC0000003F
FC0000003F
FC0000003F
FC0000003F
FC0000003F
FC0000003F
F9FFFFFFDF
73FFFFFFEF
27FFFFFFF6
0FFFFFFFF8
0FFFFFFFF8
07FFFFFFF0
ENDCHAR
STARTCHAR p
ENCODING 112
SWIDTH 816 0
DWIDTH 52 0
BBX 40 61 6 3
BITMAP
07FFFFFFF0
0FFFFFFFF8
0FFFFFFFF8
27FFFFFFF6
73FFFFFFEF
F9FFFFFFDF
FC0000003F
FC0000003F
FC0000003F
FC0000003F
FC0000003F
FC0000003F
FC0000003F
FC0000003F
FC0000003F
FC0000003F
FC0000003F
FC0000003F
FC0000003F
FC0000003F
FC0000003F
FC0000003F
FC0000003F
FC0000003F
FC0000003F
FC0000003F
FC0000003F
FC0000003F
F80000001F
F3FFC3FFCF
E7FFC3FFE7
0FFFE7FFF0
0FFFE7FFF8
E7FFC3FFE0
F3FFC3FFC0
F800000000
FC00000000
FC00000000
FC00000000
FC00000000
FC00000000
FC00000000
FC00000000
FC00000000
FC00000000
FC00000000
FC00000000
FC00000000
FC00000000
FC00000000
FC00000000
FC00000000
FC00000000
FC00000000
FC00000000
FC00000000
FC00000000
FC00000000
F800000000
7000000000
2000000000
ENDCHAR
STARTCHAR q
ENCODING 113
SWIDTH 816 0
DWIDTH 52 0
BBX 40 64 6 0
BITMAP
07FFFFFFF0
0FFFFFFFF8
0FFFFFFFF8
27FFFFFFF6
73FFFFFFEF
F9FFFFFFDF
FC0000003F
FC0000003F
FC0000003F
FC0000003F
FC0000003F
FC0000003F
FC0000003F
FC0000003F
FC0000003F
FC0000003F
FC0000003F
FC0000003F
FC0000003F
FC0000003F
FC0000003F
FC0000003F
FC0000003F
FC0000003F
FC0000003F
FC0000003F
FC0000003F
FC0000003F
F80000001F
F00000000F
E000000007
0000000000
0000000000
E000000007
F00000000F
F80000001F
FC0000C03F
FC0000E03F
FC0000E03F
FC0000F03F
FC0000F03F
FC0000F83F
FC0000FC3F
FC0000FC3F
FC0000FE3F
FC0000FE3F
FC00007F3F
FC00003FBF
FC00003FBF
FC00001FBF
FC00001FBF
FC00000FBF
FC000007BF
FC000007BF
FC000003BF
FC000003BF
FC000001BF
FC0000003F
F9FFFFFFDF
73FFFFFFEF
27FFFFFFF6
0FFFFFFFF8
0FFFFFFFF8
07FFFFFFF0
ENDCHAR
STARTCHAR r
ENCODING 114
SWIDTH 816 0
DWIDTH 52 0
BBX 40 61 6 3
BITMAP
07FFFFFFF0
0FFFFFFFF8
0FFFFFFFF8
27FFFFFFF6
73FFFFFFEF
F9FFFFFFDF
FC0000003F
FC0000003F
FC0000003F
FC0000003F
FC0000003F
FC0000003F
FC0000003F
FC0000003F
FC0000003F
FC0000003F
FC0000003F
FC0000003F
FC0000003F
FC0000003F
FC0000003F
FC0000003F
FC0000003F
FC0000003F
FC0000003F
FC0000003F
FC0000003F
FC0000003F
F80000001F
F3FFC3FFCF
E7FFC3FFE7
0FFFE7FFF0
0FFFE7FFF8
E7FFC3FFE0
F3FFC3FFC0
F800000000
FC0000C000
FC0000E000
FC0000E000
FC0000F000
FC0000F000
FC0000F800
FC0000FC00
FC0000FC00
FC0000FE00
FC0000FE00
FC00007F00
FC00003F80
FC00003F80
FC00001F80
FC00001F80
FC00000F80
FC00000780
FC00000780
FC00000380
FC00000380
FC00000180
FC00000000
F800000000
7000000000
2000000000
ENDCHAR
STARTCHAR s
ENCODING 115
SWIDTH 816 0
DWIDTH 52 0
BBX 40 64 6 0
BITMAP
07FFFFFFF0
0FFFFFFFF8
0FFFFFFFF8
27FFFFFFF0
73FFFFFFE0
F9FFFFFFC0
FC00000000
FC80000000
FCC0000000
FCE0000000
FCE0000000
FCF0000000
FCF0000000
FCF8000000
FCF8000000
FCFC000000
FCFE000000
FCFE000000
FC7F000000
FC7F000000
FC3F000000
FC1F000000
FC1F000000
FC0F000000
FC0F000000
FC07000000
FC03000000
FC03000000
F800000000
F3FFC3FFC0
E7FFC3FFE0
0FFFE7FFF0
0FFFE7FFF8
07FFC3FFE7
03FFC3FFCF
000000001F
000000C03F
000000E03F
000000E03F
000000F03F
000000F03F
000000F83F
000000FC3F
000000FC3F
000000FE3F
000000FE3F
0000007F3F
0000003FBF
0000003FBF
0000001FBF
0000001FBF
0000000FBF
00000007BF
00000007BF
00000003BF
00000003BF
00000001BF
000000003F
01FFFFFFDF
03FFFFFFEF
07FFFFFFF6
0FFFFFFFF8
0FFFFFFFF8
07FFFFFFF0
ENDCHAR
STARTCHAR t
ENCODING 116
SWIDTH 816 0
DWIDTH 52 0
BBX 33 57 10 7
BITMAP
7FFFFFFF00
FFFFFFFF80
FFFFFFFF80
7FFFFFFF00
3FFFFFFE00
1FFFFFFC00
0000000000
0007E00000
0007E00000
0007E00000
0007E00000
0007E00000
0007E00000
0007E00000
0007E00000
0007E00000
0007E00000
0007E00000
0007E00000
0007E00000
0007E00000
0007E00000
0007E00000
0007E00000
0007E00000
0007E00000
0003E00000
0003C00000
0001800000
0001800000
0000000000
0000000000
0000000000
0000000000
0001800000
0001800000
0003C00000
0003E00000
0007E00000
0007E00000
0007E00000
0007E00000
0007E00000
0007E00000
0007E00000
0007E00000
0007E00000
0007E00000
0007E00000
0007E00000
0007E00000
0007E00000
0007E00000
0007E00000
0007E00000
0007E00000
0007E00000
ENDCHAR
STARTCHAR u
ENCODING 117
SWIDTH 816 0
DWIDTH 52 0
BBX 40 61 6 0
BITMAP
2000000006
700000000F
F80000001F
FC0000003F
FC0000003F
FC0000003F
FC0000003F
FC0000003F
FC0000003F
FC0000003F
FC0000003F
FC0000003F
FC0000003F
FC0000003F
FC0000003F
FC0000003F
FC0000003F
FC0000003F
FC0000003F
FC0000003F
FC0000003F
FC0000003F
FC0000003F
FC0000003F
FC0000003F
F80000001F
F00000000F
E000000007
0000000000
0000000000
E000000007
F00000000F
F80000001F
FC0000003F
FC0000003F
FC0000003F
FC0000003F
FC0000003F
FC0000003F
FC0000003F
FC0000003F
FC0000003F
FC0000003F
FC0000003F
FC0000003F
FC0000003F
FC0000003F
FC0000003F
FC0000003F
FC0000003F
FC0000003F
FC0000003F
FC0000003F
FC0000003F
FC0000003F
F9FFFFFFDF
73FFFFFFEF
27FFFFFFF6
0FFFFFFFF8
0FFFFFFFF8
07FFFFFFF0
ENDCHAR
STARTCHAR v
ENCODING 118
SWIDTH 816 0
DWIDTH 52 0
BBX 33 58 6 3
BITMAP
2000000000
7000000000
F800000000
FC00000000
FC00000180
FC00000380
FC00000380
FC00000780
FC00000780
FC00000F80
FC00001F80
FC00001F80
FC00003F80
FC00003F80
FC00007F00
FC0000FE00
FC0000FE00
FC0000FC00
FC0000FC00
FC0000F800
FC0000F000
FC0000F000
FC0000E000
FC0000E000
FC0000C000
F800000000
F000000000
E000000000
0000000000
0000000000
E000000000
F000000000
F800000000
FC03000000
FC07000000
FC07000000
FC0F000000
FC0F000000
FC1F000000
FC1F000000
FC3F000000
FC7F000000
FC7F000000
FCFE000000
FCFE000000
FCFC000000
FCF8000000
FCF8000000
FCF0000000
FCF0000000
FCE0000000
FCE0000000
FCC0000000
FC80000000
FC00000000
F800000000
7000000000
2000000000
ENDCHAR
STARTCHAR w
ENCODING 119
SWIDTH 816 0
DWIDTH 52 0
BBX 40 58 6 3
BITMAP
2000000006
700000000F
F80000001F
FC0000003F
FC007E003F
FC007E003F
FC007E003F
FC007E003F
FC007E003F
FC007E003F
FC007E003F
FC007E003F
FC007E003F
FC007E003F
FC007E003F
FC007E003F
FC007E003F
FC007E003F
FC007E003F
FC007E003F
FC007E003F
FC007E003F
FC007E003F
FC003E003F
FC003C003F
F80018001F
F00018000F
E000000007
0000000000
0000000000
E000000007
F00000000F
F80000001F
FC0300C03F
FC0700E03F
FC0700E03F
FC0F00F03F
FC0F00F03F
FC1F00F83F
FC1F00FC3F
FC3F00FC3F
FC7F00FE3F
FC7F00FE3F
FCFE007F3F
FCFE003FBF
FCFC003FBF
FCF8001FBF
FCF8001FBF
FCF0000FBF
FCF00007BF
FCE00007BF
FCE00003BF
FCC00003BF
FC800001BF
FC0000003F
F80000001F
700000000F
2000000006
ENDCHAR
STARTCHAR x
ENCODING 120
SWIDTH 816 0
DWIDTH 52 0
BBX 25 50 14 7
BITMAP
80000180
C0000380
E0000380
E0000780
F0000780
F0000F80
F8001F80
F8001F80
FC003F80
FE003F80
FE007F00
7F00FE00
7F00FE00
3F00FC00
1F00FC00
1F00F800
0F00F000
0F00F000
0700E000
0300E000
0300C000
00000000
00000000
00000000
00000000
00000000
00000000
00000000
00000000
0300C000
0700E000
0700E000
0F00F000
0F00F000
1F00F800
1F00FC00
3F00FC00
7F00FE00
7F00FE00
FE007F00
FE003F80
FC003F80
F8001F80
F8001F80
F0000F80
F0000780
E0000780
E0000380
C0000380
80000180
ENDCHAR
STARTCHAR y
ENCODING 121
SWIDTH 816 0
DWIDTH 52 0
BBX 25 50 14 7
BITMAP
80000180
C0000380
E0000380
E0000780
F0000780
F0000F80
F8001F80
F8001F80
FC003F80
FE003F80
FE007F00
7F00FE00
7F00FE00
3F00FC00
1F00FC00
1F00F800
0F00F000
0F00F000
0700E000
0300E000
0300C000
00000000
00000000
00000000
00000000
00000000
00000000
00180000
00180000
003C0000
003E0000
007E0000
007E0000
007E0000
007E0000
007E0000
007E0000
007E0000
007E0000
007E0000
007E0000
007E0000
007E0000
007E0000
007E0000
007E0000
007E0000
007E0000
007E0000
007E0000
ENDCHAR
STARTCHAR z
ENCODING 122
SWIDTH 816 0
DWIDTH 52 0
BBX 33 64 10 0
BITMAP
7FFFFFFF00
FFFFFFFF80
FFFFFFFF80
7FFFFFFF00
3FFFFFFE00
1FFFFFFC00
0000000000
0000001800
0000003800
0000003800
0000007800
0000007800
000000F800
000001F800
000001F800
000003F800
000003F800
000007F000
00000FE000
00000FE000
00000FC000
00000FC000
00000F8000
00000F0000
00000F0000
00000E0000
00000E0000
00000C0000
0000000000
0000000000
0000000000
0000000000
0000000000
0000000000
0000000000
0000000000
0030000000
0070000000
0070000000
00F0000000
00F0000000
01F0000000
01F0000000
03F0000000
07F0000000
07F0000000
0FE0000000
0FE0000000
0FC0000000
0F80000000
0F80000000
0F00000000
0F00000000
0E00000000
0E00000000
0C00000000
0800000000
0000000000
1FFFFFFC00
3FFFFFFE00
7FFFFFFF00
FFFFFFFF80
FFFFFFFF80
7FFFFFFF00
ENDCHAR
STARTCHAR bar
ENCODING 124
SWIDTH 816 0
DWIDTH 52 0
BBX 6 50 23 7
BITMAP
FC
FC
FC
FC
FC
FC
FC
FC
FC
FC
FC
FC
FC
FC
FC
FC
FC
FC
FC
7C
78
30
30
00
00
00
00
30
30
78
7C
FC
FC
FC
FC
FC
FC
FC
FC
FC
FC
FC
FC
FC
FC
FC
FC
FC
FC
FC
ENDCHAR
STARTCHAR asciitilde
ENCODING 126
SWIDTH 816 0
DWIDTH 52 0
BBX 40 64 6 0
BITMAP
07FFFFFFF0
0FFFFFFFF8
0FFFFFFFF8
27FFFFFFF6
73FFFFFFEF
F9FFFFFFDF
FC0000003F
FC807E01BF
FCC07E03BF
FCE07E03BF
FCE07E07BF
FCF07E07BF
FCF07E0FBF
FCF87E1FBF
FCF87E1FBF
FCFC7E3FBF
FCFE7E3FBF
FCFE7E7F3F
FC7F7EFE3F
FC7F7EFE3F
FC3F7EFC3F
FC1F7EFC3F
FC1F7EF83F
FC0F7EF03F
FC0F7EF03F
FC077EE03F
FC033EE03F
FC033CC03F
F80018001F
F3FFDBFFCF
E7FFC3FFE7
0FFFE7FFF0
0FFFE7FFF8
E7FFC3FFE7
F3FFDBFFCF
F80018001F
FC033CC03F
FC073EE03F
FC077EE03F
FC0F7EF03F
FC0F7EF03F
FC1F7EF83F
FC1F7EFC3F
FC3F7EFC3F
FC7F7EFE3F
FC7F7EFE3F
FCFE7E7F3F
FCFE7E3FBF
FCFC7E3FBF
FCF87E1FBF
FCF87E1FBF
FCF07E0FBF
FCF07E07BF
FCE07E07BF
FCE07E03BF
FCC07E03BF
FC807E01BF
FC0000003F
F9FFFFFFDF
73FFFFFFEF
27FFFFFFF6
0FFFFFFFF8
0FFFFFFFF8
07FFFFFFF0
ENDCHAR
STARTCHAR yen
ENCODING 165
SWIDTH 816 0
DWIDTH 52 0
BBX 33 50 10 7
BITMAP
0800001800
0C00003800
0E00003800
0E00007800
0F00007800
0F0000F800
0F8001F800
0F8001F800
0FC003F800
0FE003F800
0FE007F000
07F00FE000
07F00FE000
03F00FC000
01F00FC000
01F00F8000
00F00F0000
00F00F0000
00700E0000
00300E0000
00300C0000
0000000000
3FFC3FFC00
7FFC3FFE00
FFFE7FFF00
FFFE7FFF80
7FFC3FFE00
3FFDBFFC00
0001800000
0003C00000
0003E00000
0007E00000
0007E00000
0007E00000
0007E00000
0007E00000
0007E00000
0007E00000
0007E00000
0007E00000
0007E00000
0007E00000
0007E00000
0007E00000
0007E00000
0007E00000
0007E00000
0007E00000
0007E00000
0007E00000
ENDCHAR
STARTCHAR brokenbar
ENCODING 166
SWIDTH 816 0
DWIDTH 52 0
BBX 6 50 23 7
BITMAP
FC
FC
FC
FC
FC
FC
FC
FC
FC
FC
FC
FC
FC
FC
FC
FC
FC
FC
FC
7C
78
30
30
00
00
00
00
30
30
78
7C
FC
FC
FC
FC
FC
FC
FC
FC
FC
FC
FC
FC
FC
FC
FC
FC
FC
FC
FC
ENDCHAR
STARTCHAR degree
ENCODING 176
SWIDTH 816 0
DWIDTH 52 0
BBX 40 35 6 29
BITMAP
07FFFFFFF0
0FFFFFFFF8
0FFFFFFFF8
27FFFFFFF6
73FFFFFFEF
F9FFFFFFDF
FC0000003F
FC0000003F
FC0000003F
FC0000003F
FC0000003F
FC0000003F
FC0000003F
FC0000003F
FC0000003F
FC0000003F
FC0000003F
FC0000003F
FC0000003F
FC0000003F
FC0000003F
FC0000003F
FC0000003F
FC0000003F
FC0000003F
FC0000003F
FC0000003F
FC0000003F
F80000001F
F3FFC3FFCF
E7FFC3FFE7
0FFFE7FFF0
0FFFE7FFF8
07FFC3FFE0
03FFC3FFC0
ENDCHAR
STARTCHAR plusminus
ENCODING 177
SWIDTH 816 0
DWIDTH 52 0
BBX 33 57 10 0
BITMAP
0007E00000
0007E00000
0007E00000
0007E00000
0007E00000
0007E00000
0007E00000
0007E00000
0007E00000
0007E00000
0007E00000
0007E00000
0007E00000
0007E00000
0007E00000
0007E00000
0007E00000
0007E00000
0007E00000
0003E00000
0003C00000
0001800000
3FFDBFFC00
7FFC3FFE00
FFFE7FFF00
FFFE7FFF80
7FFC3FFE00
3FFDBFFC00
0001800000
0003C00000
0003E00000
0007E00000
0007E00000
0007E00000
0007E00000
0007E00000
0007E00000
0007E00000
0007E00000
0007E00000
0007E00000
0007E00000
0007E00000
0007E00000
0007E00000
0007E00000
0007E00000
0007E00000
0007E00000
0007E00000
0000000000
1FFFFFFC00
3FFFFFFE00
7FFFFFFF00
FFFFFFFF80
FFFFFFFF80
7FFFFFFF00
ENDCHAR
STARTCHAR .notdef
ENCODING -1
SWIDTH 364 0
DWIDTH 23 0
BBX 17 43 2 0
BITMAP
FFFF80
FFFF80
C00180
C00180
C00180
C00180
C00180
C00180
C00180
C00180
C00180
C00180
C00180
C00180
C00180
C00180
C00180
C00180
C00180
C00180
C00180
C00180
C00180
C00180
C00180
C00180
C00180
C00180
C00180
C00180
C00180
C00180
C00180
C00180
C00180
C00180
C00180
C00180
C00180
C00180
C00180
FFFF80
FFFF80
ENDCHAR
STARTCHAR .null
ENCODING -1
SWIDTH 0 0
DWIDTH 0 0
BBX 1 1 0 0
BITMAP
00
ENDCHAR
STARTCHAR nonmarkingreturn
ENCODING -1
SWIDTH 333 0
DWIDTH 21 0
BBX 1 1 0 0
BITMAP
00
ENDCHAR
ENDFONT
